<?xml version="1.0" encoding="UTF-8"?>
<svg width="300" height="300" viewBox="0 0 300 300" xmlns="http://www.w3.org/2000/svg">
  <!-- Background gradient -->
  <defs>
    <linearGradient id="bgGradient" x1="0%" y1="0%" x2="100%" y2="100%">
      <stop offset="0%" style="stop-color:#222222;stop-opacity:1" />
      <stop offset="100%" style="stop-color:#333333;stop-opacity:1" />
    </linearGradient>
    <clipPath id="circleClip">
      <circle cx="150" cy="150" r="150" />
    </clipPath>
  </defs>
  
  <!-- Background -->
  <circle cx="150" cy="150" r="150" fill="url(#bgGradient)" />
  
  <!-- Alarm clock representation for discipline -->
  <g transform="translate(150, 150)" clip-path="url(#circleClip)">
    <!-- Clock face -->
    <circle cx="0" cy="0" r="80" fill="#2a2a2a" stroke="#795548" stroke-width="5" />
    
    <!-- Hour markers -->
    <line x1="0" y1="-70" x2="0" y2="-60" stroke="#795548" stroke-width="4" />
    <line x1="35" y1="-60.6" x2="30" y2="-52" stroke="#795548" stroke-width="4" />
    <line x1="60.6" y1="-35" x2="52" y2="-30" stroke="#795548" stroke-width="4" />
    <line x1="70" y1="0" x2="60" y2="0" stroke="#795548" stroke-width="4" />
    <line x1="60.6" y1="35" x2="52" y2="30" stroke="#795548" stroke-width="4" />
    <line x1="35" y1="60.6" x2="30" y2="52" stroke="#795548" stroke-width="4" />
    <line x1="0" y1="70" x2="0" y2="60" stroke="#795548" stroke-width="4" />
    <line x1="-35" y1="60.6" x2="-30" y2="52" stroke="#795548" stroke-width="4" />
    <line x1="-60.6" y1="35" x2="-52" y2="30" stroke="#795548" stroke-width="4" />
    <line x1="-70" y1="0" x2="-60" y2="0" stroke="#795548" stroke-width="4" />
    <line x1="-60.6" y1="-35" x2="-52" y2="-30" stroke="#795548" stroke-width="4" />
    <line x1="-35" y1="-60.6" x2="-30" y2="-52" stroke="#795548" stroke-width="4" />
    
    <!-- Clock hands -->
    <line x1="0" y1="0" x2="0" y2="-50" stroke="#ffffff" stroke-width="5" stroke-linecap="round" />
    <line x1="0" y1="0" x2="35" y2="10" stroke="#ffffff" stroke-width="5" stroke-linecap="round" />
    
    <!-- Center dot -->
    <circle cx="0" cy="0" r="8" fill="#795548" />
    
    <!-- Top bells -->
    <circle cx="-40" cy="-90" r="15" fill="#795548" />
    <circle cx="40" cy="-90" r="15" fill="#795548" />
    <path d="M-40,-90 C-20,-110 20,-110 40,-90" stroke="#795548" stroke-width="5" fill="none" />
  </g>
  
  <!-- Border -->
  <circle cx="150" cy="150" r="147" fill="none" stroke="#795548" stroke-width="3" />
</svg>