<?xml version="1.0" encoding="UTF-8"?>
<svg width="300" height="300" viewBox="0 0 300 300" xmlns="http://www.w3.org/2000/svg">
  <!-- Background gradient -->
  <defs>
    <linearGradient id="bgGradient" x1="0%" y1="0%" x2="100%" y2="100%">
      <stop offset="0%" style="stop-color:#222222;stop-opacity:1" />
      <stop offset="100%" style="stop-color:#333333;stop-opacity:1" />
    </linearGradient>
    <clipPath id="circleClip">
      <circle cx="150" cy="150" r="150" />
    </clipPath>
  </defs>
  
  <!-- Background -->
  <circle cx="150" cy="150" r="150" fill="url(#bgGradient)" />
  
  <!-- Physical strength representation -->
  <g clip-path="url(#circleClip)">
    <!-- Mountain symbolic of physical challenge -->
    <polygon points="50,230 150,80 250,230" fill="#333333" stroke="#444444" stroke-width="1" />
    <polygon points="80,230 150,110 220,230" fill="#393939" stroke="#444444" stroke-width="1" />
    
    <!-- Dumbbell -->
    <rect x="80" y="160" width="140" height="20" rx="5" fill="#795548" />
    <circle cx="65" cy="170" r="25" fill="#222222" stroke="#795548" stroke-width="4" />
    <circle cx="235" cy="170" r="25" fill="#222222" stroke="#795548" stroke-width="4" />
    
    <!-- Person silhouette -->
    <g transform="translate(150, 130)">
      <!-- Head -->
      <circle cx="0" cy="-35" r="15" fill="#ffffff" />
      
      <!-- Body -->
      <path d="M0,-20 L0,20" stroke="#ffffff" stroke-width="10" stroke-linecap="round" />
      
      <!-- Arms -->
      <path d="M0,-5 L-30,10" stroke="#ffffff" stroke-width="8" stroke-linecap="round" />
      <path d="M0,-5 L30,10" stroke="#ffffff" stroke-width="8" stroke-linecap="round" />
      
      <!-- Legs -->
      <path d="M0,20 L-20,45" stroke="#ffffff" stroke-width="8" stroke-linecap="round" />
      <path d="M0,20 L20,45" stroke="#ffffff" stroke-width="8" stroke-linecap="round" />
    </g>
  </g>
  
  <!-- Border -->
  <circle cx="150" cy="150" r="147" fill="none" stroke="#795548" stroke-width="3" />
</svg>