
<svg width="24" height="24" viewBox="0 0 24 24" fill="none" xmlns="http://www.w3.org/2000/svg">
  <path d="M12 2C13.1 2 14 2.9 14 4C14 5.1 13.1 6 12 6C10.9 6 10 5.1 10 4C10 2.9 10.9 2 12 2ZM21 9V7L15 7.5V9M15 12.5V14L21 13.5V12M15 10.5V12L21 11.5V10.5M3 7V9L9 8.5V7M9 11.5V13L3 12.5V11.5M9 14.5V16L3 15.5V14.5" stroke="currentColor" stroke-width="2" stroke-linecap="round" stroke-linejoin="round"/>
  <path d="M12 8C15.866 8 19 11.134 19 15C19 18.866 15.866 22 12 22C8.134 22 5 18.866 5 15C5 11.134 8.134 8 12 8Z" stroke="currentColor" stroke-width="2" stroke-linecap="round" stroke-linejoin="round"/>
  <path d="M12 12C13.657 12 15 13.343 15 15C15 16.657 13.657 18 12 18C10.343 18 9 16.657 9 15C9 13.343 10.343 12 12 12Z" stroke="currentColor" stroke-width="2" stroke-linecap="round" stroke-linejoin="round"/>
</svg>
