<?xml version="1.0" encoding="UTF-8"?>
<svg width="800" height="600" xmlns="http://www.w3.org/2000/svg">
  <!-- Background gradient -->
  <defs>
    <linearGradient id="skyGradient" x1="0%" y1="0%" x2="0%" y2="100%">
      <stop offset="0%" style="stop-color:#1a1a1a;stop-opacity:1" />
      <stop offset="100%" style="stop-color:#2c2c2c;stop-opacity:1" />
    </linearGradient>
  </defs>
  
  <!-- Sky background -->
  <rect width="800" height="600" fill="url(#skyGradient)" />
  
  <!-- Stars in the background -->
  <g id="stars">
    <circle cx="100" cy="80" r="2" fill="#ffffff" opacity="0.7" />
    <circle cx="200" cy="60" r="1" fill="#ffffff" opacity="0.6" />
    <circle cx="300" cy="120" r="1.5" fill="#ffffff" opacity="0.8" />
    <circle cx="450" cy="70" r="1" fill="#ffffff" opacity="0.5" />
    <circle cx="550" cy="90" r="2" fill="#ffffff" opacity="0.7" />
    <circle cx="650" cy="40" r="1.5" fill="#ffffff" opacity="0.6" />
    <circle cx="720" cy="110" r="1" fill="#ffffff" opacity="0.8" />
    <circle cx="150" cy="130" r="1" fill="#ffffff" opacity="0.5" />
    <circle cx="350" cy="50" r="1.5" fill="#ffffff" opacity="0.7" />
    <circle cx="500" cy="140" r="1" fill="#ffffff" opacity="0.6" />
    <circle cx="600" cy="100" r="2" fill="#ffffff" opacity="0.8" />
    <circle cx="750" cy="60" r="1" fill="#ffffff" opacity="0.7" />
  </g>
  
  <!-- Moon -->
  <circle cx="680" cy="120" r="40" fill="#e0e0e0" opacity="0.8" />
  <circle cx="670" cy="110" r="15" fill="#2c2c2c" opacity="0.3" />
  <circle cx="700" cy="130" r="10" fill="#2c2c2c" opacity="0.2" />
  
  <!-- Far mountains in background -->
  <path d="M0,400 L150,300 L280,380 L400,290 L550,370 L650,280 L800,350 L800,600 L0,600 Z" fill="#333333" />
  
  <!-- Mid mountains -->
  <path d="M0,450 L100,350 L200,410 L300,330 L400,420 L500,340 L600,410 L700,320 L800,400 L800,600 L0,600 Z" fill="#292929" />
  
  <!-- Main front mountain -->
  <path d="M0,500 L150,400 L280,450 L400,300 L550,450 L650,380 L800,450 L800,600 L0,600 Z" fill="#222222" />
  
  <!-- Main peak with climber -->
  <path d="M350,300 L400,150 L450,300 Z" fill="#795548" /> 
  
  <!-- Sunburst at the top -->
  <g transform="translate(400, 150)">
    <path d="M0,-30 L5,-10 L-5,-10 Z" fill="#795548" transform="rotate(0)" />
    <path d="M0,-30 L5,-10 L-5,-10 Z" fill="#795548" transform="rotate(30)" />
    <path d="M0,-30 L5,-10 L-5,-10 Z" fill="#795548" transform="rotate(60)" />
    <path d="M0,-30 L5,-10 L-5,-10 Z" fill="#795548" transform="rotate(90)" />
    <path d="M0,-30 L5,-10 L-5,-10 Z" fill="#795548" transform="rotate(120)" />
    <path d="M0,-30 L5,-10 L-5,-10 Z" fill="#795548" transform="rotate(150)" />
    <path d="M0,-30 L5,-10 L-5,-10 Z" fill="#795548" transform="rotate(180)" />
    <path d="M0,-30 L5,-10 L-5,-10 Z" fill="#795548" transform="rotate(210)" />
    <path d="M0,-30 L5,-10 L-5,-10 Z" fill="#795548" transform="rotate(240)" />
    <path d="M0,-30 L5,-10 L-5,-10 Z" fill="#795548" transform="rotate(270)" />
    <path d="M0,-30 L5,-10 L-5,-10 Z" fill="#795548" transform="rotate(300)" />
    <path d="M0,-30 L5,-10 L-5,-10 Z" fill="#795548" transform="rotate(330)" />
    
    <!-- Center star -->
    <circle cx="0" cy="0" r="10" fill="#111111" />
    <polygon points="0,-8 2,-3 8,-3 3,0 5,5 0,2 -5,5 -3,0 -8,-3 -2,-3" fill="#795548" />
  </g>
  
  <!-- Climber silhouette on the mountain -->
  <g transform="translate(400, 260) scale(0.7)">
    <circle cx="0" cy="-15" r="5" fill="#111111" /> <!-- Head -->
    <rect x="-2" y="-10" width="4" height="15" fill="#111111" /> <!-- Body -->
    <line x1="-2" y1="-5" x2="-8" y2="0" stroke="#111111" stroke-width="2" /> <!-- Left arm -->
    <line x1="2" y1="-5" x2="8" y2="0" stroke="#111111" stroke-width="2" /> <!-- Right arm -->
    <line x1="0" y1="5" x2="-5" y2="15" stroke="#111111" stroke-width="2" /> <!-- Left leg -->
    <line x1="0" y1="5" x2="5" y2="15" stroke="#111111" stroke-width="2" /> <!-- Right leg -->
    <!-- Climbing axe -->
    <line x1="8" y1="0" x2="13" y2="-5" stroke="#111111" stroke-width="1" />
  </g>
</svg>